# xmcd CD database file
#
# Track frame offsets:
#	150
#	14400
#	30127
#	47070
#	62295
#	78852
#	92185
#	105480
#	121000
#	132890
#	149612
#	162750
#	176757
#	188225
#	201162
#	211567
#
# Disc length: 3004 seconds
#
# Revision: 0
# Processed by: cddbd v1.4PL0 Copyright (c) Steve Scherf et al.
# Submitted via: Feurio! 1.65 - http://www.feurio.com
#
DISCID=c70bba10
DTITLE=Various Artist - The Big Country CD 3
DYEAR=1900
DGENRE=country
TTITLE0=Rosanne Cash - Tennessee Flat top box
TTITLE1=Mac Davis - Rock 'N Roll
TTITLE2=Shenandoah - I got you
TTITLE3=Ricky van Shelton - Crime of passion
TTITLE4=Ty Herndon - Loved to much
TTITLE5=Moe Bandy - Yesterday once more
TTITLE6=Lynn Anderson - Top of the world
TTITLE7=James Bonamy - She's got a mind of her own
TTITLE8=Lacy J. Dalton - Hillbilly girl with the blues
TTITLE9=Ricky skaggs - Cajun moon
TTITLE10=Johnny Paycheck - She's all i got
TTITLE11=Willy Nelson - My heroes have always been cowboys
TTITLE12=Johnny Cash - The sons of Katy Elder
TTITLE13=Marty Robbins - The hanging tree
TTITLE14=Frankie Lane - Gunfight at the O.K. Corral
TTITLE15=Merle Kilgore - Nevada Smith
EXTD=
EXTT0=
EXTT1=
EXTT2=
EXTT3=
EXTT4=
EXTT5=
EXTT6=
EXTT7=
EXTT8=
EXTT9=
EXTT10=
EXTT11=
EXTT12=
EXTT13=
EXTT14=
EXTT15=
PLAYORDER=
